# xmcd
#
# Track frame offsets:
#	150
#	16748
#	38209
#	58898
#	89743
#	113056
#	146197
#	169591
#	179128
#	198618
#	216760
#
# Disc length: 3201 seconds
#
# Revision: 3
# Processed by: cddbd v1.5.2PL0 Copyright (c) Steve Scherf et al.
# Submitted via: EasyCDDAExtractor 11.5.3.1
#
DISCID=a70c7f0b
DTITLE=Mia Dyson - Cold Water
DYEAR=2003
DGENRE=Blues
TTITLE0=Lonely
TTITLE1=Return
TTITLE2=Roll On
TTITLE3=Through This Town
TTITLE4=Precious Thing
TTITLE5=The Judgement Song
TTITLE6=Sweet Struggle
TTITLE7=Tali Karng
TTITLE8=Deilaphelia
TTITLE9=St Kilda Lament
TTITLE10=Make A Stand
EXTD=YEAR: 2003
EXTT0=
EXTT1=
EXTT2=
EXTT3=
EXTT4=
EXTT5=
EXTT6=
EXTT7=
EXTT8=
EXTT9=
EXTT10=
PLAYORDER=
